<svg width="18" height="16" version="1.1" viewBox="0 0 18 16" xmlns="http://www.w3.org/2000/svg">
 <path d="m4.086 0.98444 2.9249 2.9272c0.11382 0.1078 0.17071 0.24241 0.17071 0.4041s-0.05695 0.29631-0.17071 0.40411l-0.33702 0.34121c-0.11083 0.11078-0.24556 0.16616-0.40431 0.16616-0.15575 0-0.29207-0.05537-0.40886-0.16616l-2.1791-2.182-2.1836 2.1821c-0.11083 0.11074-0.24556 0.16612-0.40432 0.16612-0.15574 0-0.29211-0.05537-0.40884-0.16612l-0.33697-0.34125c-0.11083-0.11076-0.16624-0.24551-0.16624-0.40411 0-0.15865 0.055409-0.29337 0.16624-0.4041l2.9249-2.9273c0.11682-0.1108 0.25311-0.16624 0.40886-0.16624 0.15875-1.6e-5 0.29355 0.055433 0.40439 0.16624z" clip-rule="evenodd" fill="#8695a1" fill-rule="evenodd"/>
 <path d="m4.086 15.652 2.9249-2.9272c0.11382-0.1078 0.17071-0.2424 0.17071-0.4041s-0.05695-0.2963-0.17071-0.4041l-0.33702-0.3412c-0.11083-0.1108-0.24556-0.1662-0.40431-0.1662-0.15575 0-0.29207 0.0554-0.40886 0.1662l-2.1791 2.182-2.1836-2.1821c-0.11083-0.1108-0.24556-0.1662-0.40432-0.1662-0.15574 0-0.29211 0.0554-0.40884 0.1662l-0.33697 0.3412c-0.11083 0.1108-0.16624 0.2455-0.16624 0.4041 0 0.1587 0.055409 0.2934 0.16624 0.4041l2.9249 2.9273c0.11682 0.1108 0.25311 0.1662 0.40886 0.1662 0.15875 0 0.29355-0.0554 0.40439-0.1662z" clip-rule="evenodd" fill="#8695a1" fill-rule="evenodd"/>
</svg>
