<svg width="98.209" height="29" fill="none" version="1.1" viewBox="0 0 98.209 29" xmlns="http://www.w3.org/2000/svg">
 <g style="fill:#ff605b" aria-label="Rubik">
  <g transform="matrix(1.7132 0 0 1.7132 14.177 76.974)" style="shape-inside:url(#rect847);white-space:pre" aria-label="Mont">
   <path d="m4.8583-29.216-0.042026-6.7032-3.194 5.3794h-2.1854l-3.194-5.1482v6.472h-4.5178v-14.709h4.0765l4.791 7.8379 4.6649-7.8379h4.0765l0.042026 14.709z" style="fill:#00b4a2"/>
   <path d="m17.679-29.006q-1.9122 0-3.4461-0.75647-1.5129-0.77748-2.3745-2.1223-0.86154-1.3659-0.86154-3.0889 0-1.7231 0.86154-3.0679 0.86154-1.3659 2.3745-2.1223 1.534-0.75647 3.4461-0.75647 1.9332 0 3.4461 0.75647 1.534 0.75647 2.3745 2.1223 0.86154 1.3448 0.86154 3.0679 0 1.7231-0.86154 3.0889-0.84052 1.3448-2.3745 2.1223-1.5129 0.75647-3.4461 0.75647zm0-3.6983q0.81951 0 1.3448-0.58837 0.52533-0.60938 0.52533-1.681 0-1.0717-0.52533-1.66-0.52533-0.58837-1.3448-0.58837t-1.3448 0.58837q-0.52533 0.58837-0.52533 1.66 0 1.0717 0.52533 1.681 0.52533 0.58837 1.3448 0.58837z" style="fill:#00b4a2"/>
   <path d="m33.832-40.921q2.1223 0 3.4041 1.2818 1.3028 1.2818 1.3028 3.8664v6.5561h-4.749v-5.7366q0-1.9752-1.4079-1.9752-0.7985 0-1.3028 0.56735-0.4833 0.54634-0.4833 1.7441v5.4004h-4.749v-11.494h4.5178v1.1347q0.67242-0.67242 1.555-1.0086t1.9122-0.33621z" style="fill:#00b4a2"/>
   <path d="m49.049-29.616q-1.0717 0.60938-2.9208 0.60938-2.4165 0-3.7193-1.1557-1.3028-1.1767-1.3028-3.5092v-2.9418h-1.576v-3.4672h1.576v-3.215h4.749v3.215h2.3535v3.4672h-2.3535v2.8998q0 0.52533 0.27317 0.81951 0.27317 0.29418 0.71445 0.29418 0.60938 0 1.0717-0.3152z" style="fill:#00b4a2"/>
  </g>
 </g>
</svg>
